HIERARCHY
ROOT Hips
{
	OFFSET -0.001795 -0.223333 0.028219
	CHANNELS 6 Xposition Yposition Zposition Zrotation Yrotation Xrotation 
	JOINT LeftUpLeg
	{
		OFFSET 0.069520 -0.091406 -0.006815
		CHANNELS 3 Zrotation Yrotation Xrotation
		JOINT LeftLeg
		{
			OFFSET 0.034277 -0.375199 -0.004496
			CHANNELS 3 Zrotation Yrotation Xrotation
			JOINT LeftFoot
			{
				OFFSET -0.013596 -0.397961 -0.043693
				CHANNELS 3 Zrotation Yrotation Xrotation
				JOINT LeftToe
				{
					OFFSET 0.026358 -0.055791 0.119288
					CHANNELS 3 Zrotation Yrotation Xrotation
					End Site
					{
						OFFSET 0.000000 0.000000 0.000000
					}
				}
			}
		}
	}
	JOINT RightUpLeg
	{
		OFFSET -0.067670 -0.090522 -0.004320
		CHANNELS 3 Zrotation Yrotation Xrotation
		JOINT RightLeg
		{
			OFFSET -0.038290 -0.382569 -0.008850
			CHANNELS 3 Zrotation Yrotation Xrotation
			JOINT RightFoot
			{
				OFFSET 0.015774 -0.398415 -0.042312
				CHANNELS 3 Zrotation Yrotation Xrotation
				JOINT RightToe
				{
					OFFSET -0.025372 -0.048144 0.123348
					CHANNELS 3 Zrotation Yrotation Xrotation
					End Site
					{
						OFFSET 0.000000 0.000000 0.000000
					}
				}
			}
		}
	}
	JOINT Spine
	{
		OFFSET -0.002533 0.108963 -0.026696
		CHANNELS 3 Zrotation Yrotation Xrotation
		JOINT Spine1
		{
			OFFSET 0.005487 0.135180 0.001092
			CHANNELS 3 Zrotation Yrotation Xrotation
			JOINT Spine2
			{
				OFFSET 0.001457 0.052922 0.025425
				CHANNELS 3 Zrotation Yrotation Xrotation
				JOINT Neck
				{
					OFFSET -0.002778 0.213870 -0.042857
					CHANNELS 3 Zrotation Yrotation Xrotation
					JOINT Head
					{
						OFFSET 0.005152 0.064970 0.051349
						CHANNELS 3 Zrotation Yrotation Xrotation
						End Site
						{
							OFFSET 0.000000 0.000000 0.000000
						}
					}
				}
				JOINT LeftShoulder
				{
					OFFSET 0.078845 0.121749 -0.034090
					CHANNELS 3 Zrotation Yrotation Xrotation
					JOINT LeftArm
					{
						OFFSET 0.090977 0.030469 -0.008868
						CHANNELS 3 Zrotation Yrotation Xrotation
						JOINT LeftForeArm
						{
							OFFSET 0.259612 -0.012772 -0.027456
							CHANNELS 3 Zrotation Yrotation Xrotation
							JOINT LeftHand
							{
								OFFSET 0.249234 0.008986 -0.001171
								CHANNELS 3 Zrotation Yrotation Xrotation
								End Site
								{
									OFFSET 0.000000 0.000000 0.000000
								}
							}
						}
					}
				}
				JOINT RightShoulder
				{
					OFFSET -0.081759 0.118833 -0.038615
					CHANNELS 3 Zrotation Yrotation Xrotation
					JOINT RightArm
					{
						OFFSET -0.096012 0.032551 -0.009143
						CHANNELS 3 Zrotation Yrotation Xrotation
						JOINT RightForeArm
						{
							OFFSET -0.253742 -0.013329 -0.021401
							CHANNELS 3 Zrotation Yrotation Xrotation
							JOINT RightHand
							{
								OFFSET -0.255298 0.007772 -0.005559
								CHANNELS 3 Zrotation Yrotation Xrotation
								End Site
								{
									OFFSET 0.000000 0.000000 0.000000
								}
							}
						}
					}
				}
			}
		}
	}
}
MOTION
Frames: 13
Frame Time: 0.050000
0.000000 0.951057 0.000000 -0.229449 3.704297 2.689939 5.655854 -0.198897 -1.231050 -1.284662 0.152183 -0.951029 -1.879195 1.892964 11.758024 0.000000 0.000000 0.000000 -5.656183 0.160834 -0.861218 -0.124473 0.137269 3.251477 -10.197511 -21.466183 45.075987 0.000000 0.000000 0.000000 -0.895257 0.051218 -1.225388 1.091452 -0.520807 -0.069079 0.630088 -1.222198 2.624362 0.674753 -0.127545 -4.627215 0.000000 0.000000 0.000000 -7.301775 -1.979880 0.068606 -22.501767 -10.709842 -0.916154 18.466296 -4.688598 -0.515649 0.000000 0.000000 0.000000 3.665117 4.185249 1.284249 24.401494 7.520808 -1.022958 -14.528812 1.993143 0.146422 0.000000 0.000000 0.000000 
0.000400 0.949609 0.001216 -0.105420 3.976933 2.681565 5.465921 -0.188858 -1.013424 -1.176054 0.148357 -1.228956 -1.929346 1.671611 11.344012 0.000000 0.000000 0.000000 -6.169425 0.098018 0.439462 0.339296 0.009577 1.400407 -9.616096 -20.888127 44.219493 0.000000 0.000000 0.000000 -1.078140 0.060011 -1.521704 0.450978 -0.222523 0.070325 1.762713 -0.805104 2.315992 -0.443977 0.767775 -5.412358 0.000000 0.000000 0.000000 -7.320208 -1.918697 0.011565 -23.252951 -11.179860 -0.831093 17.641482 -4.243335 -0.442116 0.000000 0.000000 0.000000 3.463277 2.251374 0.571841 25.555666 6.596089 -1.205681 -14.938317 3.405731 0.015912 0.000000 0.000000 0.000000 
0.000642 0.948371 0.002343 -0.024978 3.965714 2.337024 5.344354 -0.192763 -1.268748 -1.134254 0.112917 0.049217 -1.766430 1.669572 10.680362 0.000000 0.000000 0.000000 -6.679387 0.096905 0.559459 1.213651 -0.097796 1.517710 -11.001564 -22.188506 45.920195 0.000000 0.000000 0.000000 0.123556 0.046533 -1.242236 -0.303924 0.194587 -1.397817 0.737736 -0.347972 3.784303 0.973097 -0.254883 -5.218034 0.000000 0.000000 0.000000 -5.971249 -1.800776 0.045923 -24.669854 -11.828626 -0.791624 18.302472 -3.958634 -0.454673 0.000000 0.000000 0.000000 5.145179 1.869860 0.387162 24.882942 5.923684 -1.410071 -15.012577 0.917541 0.288466 0.000000 0.000000 0.000000 
0.000820 0.948044 0.003268 -0.011307 4.509005 2.113342 5.718852 -0.194131 -1.042525 -1.565582 0.149405 0.284931 -2.270004 0.594000 10.050062 0.000000 0.000000 0.000000 -6.678534 0.048865 1.313278 1.292561 -0.123139 0.993647 -11.127434 -22.246287 45.794747 0.000000 0.000000 0.000000 -0.045854 0.065726 -1.753678 -0.873442 0.421870 -0.282773 1.840353 -1.551658 3.658699 -0.364504 0.726020 -5.937524 0.000000 0.000000 0.000000 -6.610102 -1.288641 -0.121062 -26.801610 -11.628986 -0.894639 20.231110 -4.874408 -0.593798 0.000000 0.000000 0.000000 5.043107 2.231615 0.454030 25.644895 5.582137 -1.442517 -15.189468 0.385261 0.313132 0.000000 0.000000 0.000000 
0.000681 0.948321 0.003959 0.224111 4.611520 1.779205 5.716176 -0.182125 -0.817346 -1.778328 0.159900 0.812696 -2.648559 -0.182609 9.763539 0.000000 0.000000 0.000000 -7.104350 0.045742 1.431282 1.322647 -0.119296 1.317953 -10.613564 -21.709646 47.178524 0.000000 0.000000 0.000000 -0.341717 0.051786 -1.376643 -0.304462 0.186404 -1.089250 1.257949 -1.343457 3.917011 0.162097 0.377060 -6.104379 0.000000 0.000000 0.000000 -7.040582 -1.188878 -0.233129 -27.963189 -10.669431 -1.094726 20.243685 -6.450077 -0.837700 0.000000 0.000000 0.000000 6.523737 1.989688 0.299578 26.021329 5.051615 -1.585282 -14.833041 0.131108 0.342188 0.000000 0.000000 0.000000 
0.000358 0.947993 0.004326 0.297353 4.998059 1.941098 5.490550 -0.204003 -1.323339 -1.364710 0.093519 1.659893 -2.762124 -0.769112 8.880310 0.000000 0.000000 0.000000 -7.180833 0.041406 1.461855 1.353939 -0.133598 0.951045 -10.859730 -21.858433 48.205216 0.000000 0.000000 0.000000 -0.694032 0.063122 -1.749778 -0.265917 0.111421 0.253806 1.985435 -2.230707 3.107234 -0.439655 0.820602 -6.927064 0.000000 0.000000 0.000000 -6.759805 0.056840 -0.644509 -30.849781 -10.390534 -1.202184 19.619310 -7.701017 -0.930733 0.000000 0.000000 0.000000 5.832748 1.835585 0.200092 29.091628 5.531585 -1.550815 -14.848855 -0.331929 0.365156 0.000000 0.000000 0.000000 
-0.000258 0.948010 0.004462 0.287906 4.581353 1.916564 5.606859 -0.195904 -1.193440 -1.493724 0.104230 1.885808 -2.620537 -0.801048 8.393631 0.000000 0.000000 0.000000 -7.170388 0.049335 1.456305 1.412393 -0.144094 0.760491 -11.155470 -22.176873 48.371367 0.000000 0.000000 0.000000 -0.478901 0.059079 -1.592565 -0.453579 0.204658 0.194616 1.731922 -2.166835 3.344910 -0.284829 0.747632 -7.562367 0.000000 0.000000 0.000000 -7.984210 0.105349 -0.770007 -32.429076 -9.314701 -1.511750 19.006941 -8.614497 -1.004723 0.000000 0.000000 0.000000 7.654686 1.676957 -0.009829 30.898107 5.255598 -1.700639 -14.639946 0.076830 0.318994 0.000000 0.000000 0.000000 
-0.000934 0.948032 0.004593 0.263668 4.317230 2.148845 5.607215 -0.201043 -1.325661 -1.775138 0.143841 1.603612 -1.998182 0.428303 8.698967 0.000000 0.000000 0.000000 -7.205422 0.073658 1.110901 1.607896 -0.165952 0.804315 -11.318294 -22.354409 48.323463 0.000000 0.000000 0.000000 -0.561193 0.053149 -1.391695 -0.522867 0.264168 -0.497529 1.832590 -2.417515 3.960323 -0.341086 0.839719 -8.784599 0.000000 0.000000 0.000000 -9.734500 0.510155 -1.058086 -34.824538 -8.770217 -1.793357 18.540639 -8.901457 -0.983015 0.000000 0.000000 0.000000 9.805891 1.891578 -0.121897 33.314115 5.248628 -1.842934 -14.682257 0.442536 0.277463 0.000000 0.000000 0.000000 
-0.001564 0.948041 0.005053 0.130827 3.791806 2.409950 5.605964 -0.200598 -1.383978 -1.831820 0.168522 0.816258 -1.363758 2.007762 9.897293 0.000000 0.000000 0.000000 -7.108662 0.095623 0.880480 1.585884 -0.165294 0.627934 -10.739776 -21.909163 47.734904 0.000000 0.000000 0.000000 -0.613185 0.060477 -1.582469 -0.360756 0.179498 -0.301739 1.595379 -2.254576 3.597373 -0.174848 0.742821 -9.097816 0.000000 0.000000 0.000000 -11.704094 0.270541 -1.136537 -37.290625 -7.873926 -2.115659 17.464432 -8.670132 -0.877016 0.000000 0.000000 0.000000 11.672107 2.175863 -0.165774 36.638425 5.259480 -1.964666 -14.835425 0.743017 0.249650 0.000000 0.000000 0.000000 
-0.001971 0.947806 0.005929 0.261689 3.621368 2.478375 5.551907 -0.194457 -1.288332 -2.025222 0.204530 0.006423 -1.250351 2.778987 11.378839 0.000000 0.000000 0.000000 -7.313115 0.102385 0.943062 1.555451 -0.155410 0.861339 -9.564953 -20.873239 45.853506 0.000000 0.000000 0.000000 -0.887044 0.063137 -1.655821 -0.387882 0.188818 -0.209838 1.548141 -2.457100 3.383716 -0.298147 0.857675 -9.909445 0.000000 0.000000 0.000000 -13.759501 0.422729 -1.360765 -40.215742 -6.860666 -2.564284 16.866212 -9.153299 -0.875810 0.000000 0.000000 0.000000 13.774968 2.103002 -0.435165 39.749233 5.132193 -2.114826 -14.230132 1.523552 0.160861 0.000000 0.000000 0.000000 
-0.002272 0.947223 0.007042 0.269928 3.590539 2.438436 5.592464 -0.172658 -0.752693 -2.144381 0.236183 -1.219477 -1.148900 3.350266 12.442374 0.000000 0.000000 0.000000 -7.415570 0.092357 1.262196 1.594964 -0.160357 0.850448 -8.592967 -19.947013 44.284872 0.000000 0.000000 0.000000 -1.111971 0.068090 -1.838537 -0.394748 0.181723 0.073196 1.515855 -2.335358 2.986197 -0.732220 1.154449 -9.826717 0.000000 0.000000 0.000000 -16.214560 0.320303 -1.576994 -42.969973 -5.866512 -3.017171 15.980959 -10.281894 -0.932674 0.000000 0.000000 0.000000 15.709688 1.939068 -0.681615 43.607409 4.124177 -2.615360 -13.598136 3.238777 0.006498 0.000000 0.000000 0.000000 
-0.002710 0.946839 0.007979 0.434759 3.356577 2.463428 5.401232 -0.162573 -0.671656 -2.108325 0.233967 -1.212970 -1.025752 3.502596 12.394357 0.000000 0.000000 0.000000 -7.642481 0.109424 1.107418 1.715513 -0.163524 1.319827 -8.415991 -19.803300 43.226857 0.000000 0.000000 0.000000 -1.166556 0.086452 -2.501363 -0.595652 0.265116 0.443127 1.334547 -2.225477 2.896678 -1.020942 1.404461 -10.863772 0.000000 0.000000 0.000000 -17.971866 0.410116 -1.805484 -46.028244 -5.114465 -3.482130 15.018923 -11.250107 -0.943124 0.000000 0.000000 0.000000 17.541080 1.848703 -0.898715 47.170420 3.002665 -3.233525 -12.481209 5.492709 -0.162247 0.000000 0.000000 0.000000 
-0.004014 0.946603 0.008232 0.506272 3.526510 2.297450 5.521458 -0.157479 -0.486401 -2.272348 0.248429 -1.240663 -1.129258 3.354295 12.390389 0.000000 0.000000 0.000000 -7.480188 0.086946 1.413058 1.606107 -0.143109 1.650166 -8.303550 -19.658559 41.247233 0.000000 0.000000 0.000000 -1.351109 0.085652 -2.579487 -0.660641 0.283571 0.804328 1.174853 -2.393679 2.491506 -1.380095 1.634214 -10.821179 0.000000 0.000000 0.000000 -20.005146 0.253952 -1.927524 -48.091322 -4.162176 -3.970289 13.440470 -13.475664 -0.976013 0.000000 0.000000 0.000000 19.366601 1.969317 -1.038809 49.532128 1.349253 -4.008571 -10.322553 8.340754 -0.278443 0.000000 0.000000 0.000000 
